<svg xmlns="http://www.w3.org/2000/svg" width="800" height="800" viewBox="0 0 800 800" fill="none"><mask id="mask0_2173_6236" style="mask-type:luminance" maskUnits="userSpaceOnUse" x="223" y="0" width="577" height="744">
<path d="M223.672 0H800V743.047H223.672V0Z" fill="white"></path>
</mask><g mask="url(#mask0_2173_6236)">
<path d="M268.865 22.099V22.0885C269.339 21.9271 269.818 21.776 270.292 21.6146C272.24 20.9375 274.208 20.276 276.177 19.6354C276.74 19.4531 277.302 19.276 277.875 19.0938C280.016 18.4115 282.156 17.724 284.318 17.0781C284.552 17.0052 284.797 16.9375 285.036 16.8698C287.182 16.224 289.333 15.5781 291.49 14.9688V14.9896C326.031 5.26562 362.443 0.046875 400.089 0.046875C621.026 0.046875 800.13 179.146 800.13 400.083C800.13 544.818 723.271 671.583 608.146 741.828V667.698C687.807 605.672 739.063 508.87 739.063 400.083C739.063 212.875 587.297 61.1094 400.089 61.1094C362.104 61.1094 325.589 67.3854 291.49 78.9063V564.495H224.516V40.5573C238.839 33.5417 253.646 27.3854 268.865 22.099Z" fill="#A6A6A6"></path>
</g><mask id="mask1_2173_6236" style="mask-type:luminance" maskUnits="userSpaceOnUse" x="0" y="57" width="576" height="743">
<path d="M0 57.7134H575.672V799.995H0V57.7134Z" fill="white"></path>
</mask><g mask="url(#mask1_2173_6236)">
<path d="M192.037 58.3384V132.474C112.37 194.495 61.1149 291.297 61.1149 400.083C61.1149 587.292 212.881 739.057 400.089 739.057C438.073 739.057 474.589 732.797 508.677 721.281V235.672H575.662V759.614C558.308 768.104 540.24 775.364 521.589 781.302V781.318C521.157 781.458 520.709 781.588 520.271 781.724C518.573 782.26 516.87 782.781 515.157 783.302C514.328 783.552 513.485 783.786 512.657 784.031C511.328 784.422 510.011 784.828 508.677 785.203V785.177C474.146 794.901 437.735 800.125 400.089 800.125C179.151 800.125 0.0419922 621.021 0.0419922 400.083C0.0419922 255.354 76.9066 128.583 192.037 58.3384Z" fill="black"></path>
</g></svg>