<svg xmlns="http://www.w3.org/2000/svg" xmlns:xlink="http://www.w3.org/1999/xlink" width="1052" zoomAndPan="magnify" viewBox="0 0 788.88 207.75" height="277" preserveAspectRatio="xMidYMid meet" version="1.0"><defs><g/><clipPath id="d41c0392de"><rect x="0" width="376" y="0" height="143"/></clipPath><clipPath id="4fd7b0e257"><rect x="0" width="129" y="0" height="143"/></clipPath><clipPath id="f098f5b867"><rect x="0" width="50" y="0" height="168"/></clipPath></defs><g transform="matrix(1, 0, 0, 1, 147, 34)"><g clip-path="url(#d41c0392de)"><g fill="#000000" fill-opacity="1"><g transform="translate(4.896182, 102.44663)"><g><path d="M 38.546875 -84.015625 C 42.617188 -84.015625 46.503906 -83.304688 50.203125 -81.890625 C 53.898438 -80.484375 57.296875 -78.5 60.390625 -75.9375 C 63.484375 -73.375 66.164062 -70.335938 68.4375 -66.828125 C 70.707031 -63.316406 72.46875 -59.46875 73.71875 -55.28125 C 74.976562 -51.09375 75.609375 -46.6875 75.609375 -42.0625 C 75.609375 -37.4375 74.976562 -33.03125 73.71875 -28.84375 C 72.46875 -24.65625 70.707031 -20.816406 68.4375 -17.328125 C 66.164062 -13.847656 63.484375 -10.820312 60.390625 -8.25 C 57.296875 -5.6875 53.898438 -3.695312 50.203125 -2.28125 C 46.503906 -0.875 42.617188 -0.171875 38.546875 -0.171875 C 34.472656 -0.171875 30.582031 -0.875 26.875 -2.28125 C 23.175781 -3.695312 19.78125 -5.6875 16.6875 -8.25 C 13.59375 -10.820312 10.910156 -13.847656 8.640625 -17.328125 C 6.367188 -20.816406 4.601562 -24.65625 3.34375 -28.84375 C 2.09375 -33.03125 1.46875 -37.4375 1.46875 -42.0625 C 1.46875 -46.6875 2.09375 -51.09375 3.34375 -55.28125 C 4.601562 -59.46875 6.367188 -63.316406 8.640625 -66.828125 C 10.910156 -70.335938 13.59375 -73.375 16.6875 -75.9375 C 19.78125 -78.5 23.175781 -80.484375 26.875 -81.890625 C 30.582031 -83.304688 34.472656 -84.015625 38.546875 -84.015625 Z M 38.546875 -2.765625 C 41.796875 -2.765625 44.894531 -3.425781 47.84375 -4.75 C 50.800781 -6.082031 53.515625 -7.953125 55.984375 -10.359375 C 58.453125 -12.773438 60.597656 -15.628906 62.421875 -18.921875 C 64.242188 -22.210938 65.65625 -25.832031 66.65625 -29.78125 C 67.65625 -33.738281 68.15625 -37.890625 68.15625 -42.234375 C 68.15625 -46.585938 67.65625 -50.734375 66.65625 -54.671875 C 65.65625 -58.609375 64.242188 -62.21875 62.421875 -65.5 C 60.597656 -68.789062 58.453125 -71.648438 55.984375 -74.078125 C 53.515625 -76.503906 50.800781 -78.382812 47.84375 -79.71875 C 44.894531 -81.050781 41.796875 -81.71875 38.546875 -81.71875 C 35.285156 -81.71875 32.175781 -81.050781 29.21875 -79.71875 C 26.269531 -78.382812 23.5625 -76.503906 21.09375 -74.078125 C 18.625 -71.648438 16.476562 -68.789062 14.65625 -65.5 C 12.832031 -62.21875 11.421875 -58.609375 10.421875 -54.671875 C 9.429688 -50.734375 8.9375 -46.585938 8.9375 -42.234375 C 8.9375 -37.890625 9.429688 -33.738281 10.421875 -29.78125 C 11.421875 -25.832031 12.832031 -22.210938 14.65625 -18.921875 C 16.476562 -15.628906 18.625 -12.773438 21.09375 -10.359375 C 23.5625 -7.953125 26.269531 -6.082031 29.21875 -4.75 C 32.175781 -3.425781 35.285156 -2.765625 38.546875 -2.765625 Z M 38.546875 -2.765625 "/></g></g></g><g fill="#000000" fill-opacity="1"><g transform="translate(107.695122, 102.44663)"><g><path d="M 36.3125 -84.1875 C 40.144531 -84.1875 43.785156 -83.609375 47.234375 -82.453125 C 50.679688 -81.296875 53.726562 -79.628906 56.375 -77.453125 C 59.019531 -75.285156 61.101562 -72.664062 62.625 -69.59375 C 64.15625 -66.519531 64.921875 -63.0625 64.921875 -59.21875 C 64.921875 -53.539062 63.820312 -48.722656 61.625 -44.765625 C 59.4375 -40.804688 55.941406 -37.800781 51.140625 -35.75 C 46.335938 -33.695312 39.984375 -32.671875 32.078125 -32.671875 L 11.109375 -32.671875 L 11.109375 -7.8125 C 11.109375 -5.5 11.3125 -3.785156 11.71875 -2.671875 C 12.132812 -1.554688 12.535156 -0.84375 12.921875 -0.53125 C 13.316406 -0.21875 13.515625 -0.0625 13.515625 -0.0625 L 1.46875 -0.0625 C 1.46875 -0.0625 1.671875 -0.226562 2.078125 -0.5625 C 2.492188 -0.894531 2.90625 -1.617188 3.3125 -2.734375 C 3.726562 -3.847656 3.9375 -5.5625 3.9375 -7.875 L 3.9375 -76.015625 C 3.9375 -78.367188 3.726562 -80.125 3.3125 -81.28125 C 2.90625 -82.4375 2.492188 -83.207031 2.078125 -83.59375 C 1.671875 -83.988281 1.46875 -84.1875 1.46875 -84.1875 C 1.46875 -84.1875 2.0625 -84.1875 3.25 -84.1875 C 4.445312 -84.1875 6.046875 -84.1875 8.046875 -84.1875 C 10.046875 -84.1875 12.238281 -84.1875 14.625 -84.1875 C 17.019531 -84.1875 19.441406 -84.1875 21.890625 -84.1875 C 24.335938 -84.1875 26.609375 -84.1875 28.703125 -84.1875 C 30.796875 -84.1875 32.523438 -84.1875 33.890625 -84.1875 C 35.265625 -84.1875 36.070312 -84.1875 36.3125 -84.1875 Z M 28.5 -34.78125 C 32.570312 -34.78125 36.367188 -35.101562 39.890625 -35.75 C 43.410156 -36.394531 46.484375 -37.578125 49.109375 -39.296875 C 51.734375 -41.023438 53.78125 -43.472656 55.25 -46.640625 C 56.71875 -49.816406 57.453125 -53.953125 57.453125 -59.046875 C 57.453125 -63.117188 56.707031 -66.59375 55.21875 -69.46875 C 53.738281 -72.351562 51.765625 -74.6875 49.296875 -76.46875 C 46.828125 -78.25 44.09375 -79.550781 41.09375 -80.375 C 38.09375 -81.195312 35.085938 -81.609375 32.078125 -81.609375 L 11.8125 -81.609375 C 11.613281 -81.015625 11.445312 -80.257812 11.3125 -79.34375 C 11.175781 -78.425781 11.109375 -77.316406 11.109375 -76.015625 L 11.109375 -34.78125 Z M 28.5 -34.78125 "/></g></g></g><g fill="#000000" fill-opacity="1"><g transform="translate(199.803991, 102.44663)"><g><path d="M 32.375 -41.125 C 32.375 -41.125 32.1875 -41.425781 31.8125 -42.03125 C 31.4375 -42.644531 30.738281 -43.332031 29.71875 -44.09375 C 28.707031 -44.851562 27.28125 -45.535156 25.4375 -46.140625 C 23.59375 -46.753906 21.203125 -47.0625 18.265625 -47.0625 L 11.109375 -47.0625 L 11.109375 -8.21875 C 11.109375 -6.851562 11.1875 -5.691406 11.34375 -4.734375 C 11.5 -3.773438 11.691406 -2.976562 11.921875 -2.34375 L 26.203125 -2.34375 C 31.679688 -2.34375 36.269531 -2.644531 39.96875 -3.25 C 43.675781 -3.863281 46.65625 -4.609375 48.90625 -5.484375 C 51.15625 -6.367188 52.859375 -7.242188 54.015625 -8.109375 C 55.171875 -8.972656 55.941406 -9.707031 56.328125 -10.3125 C 56.722656 -10.914062 56.921875 -11.21875 56.921875 -11.21875 L 54.515625 -0.0625 L 1.46875 -0.0625 C 1.46875 -0.0625 1.671875 -0.253906 2.078125 -0.640625 C 2.492188 -1.035156 2.90625 -1.820312 3.3125 -3 C 3.726562 -4.175781 3.9375 -5.914062 3.9375 -8.21875 L 3.9375 -76.4375 C 3.9375 -78.78125 3.726562 -80.5 3.3125 -81.59375 C 2.90625 -82.695312 2.492188 -83.414062 2.078125 -83.75 C 1.671875 -84.082031 1.46875 -84.25 1.46875 -84.25 L 54.515625 -84.25 L 56.921875 -73.03125 C 56.921875 -73.03125 56.722656 -73.332031 56.328125 -73.9375 C 55.941406 -74.539062 55.171875 -75.28125 54.015625 -76.15625 C 52.859375 -77.039062 51.15625 -77.914062 48.90625 -78.78125 C 46.65625 -79.644531 43.675781 -80.378906 39.96875 -80.984375 C 36.269531 -81.585938 31.679688 -81.890625 26.203125 -81.890625 L 11.8125 -81.890625 C 11.613281 -81.347656 11.445312 -80.625 11.3125 -79.71875 C 11.175781 -78.820312 11.109375 -77.75 11.109375 -76.5 L 11.109375 -49.0625 L 18.265625 -49.0625 C 21.203125 -49.0625 23.59375 -49.363281 25.4375 -49.96875 C 27.28125 -50.570312 28.707031 -51.253906 29.71875 -52.015625 C 30.738281 -52.785156 31.4375 -53.472656 31.8125 -54.078125 C 32.1875 -54.679688 32.375 -54.984375 32.375 -54.984375 Z M 32.375 -41.125 "/></g></g></g><g fill="#000000" fill-opacity="1"><g transform="translate(283.924643, 102.44663)"><g><path d="M 59.75 -9.75 L 59.75 -76.4375 C 59.75 -78.78125 59.550781 -80.5 59.15625 -81.59375 C 58.769531 -82.695312 58.367188 -83.40625 57.953125 -83.71875 C 57.546875 -84.03125 57.34375 -84.1875 57.34375 -84.1875 L 63.5625 -84.1875 C 63.5625 -84.1875 63.351562 -84.03125 62.9375 -83.71875 C 62.53125 -83.40625 62.117188 -82.707031 61.703125 -81.625 C 61.296875 -80.550781 61.09375 -78.84375 61.09375 -76.5 L 61.046875 -0.0625 L 59.75 -0.0625 C 59.75 -0.0625 59.257812 -0.785156 58.28125 -2.234375 C 57.300781 -3.679688 55.945312 -5.6875 54.21875 -8.25 C 52.5 -10.820312 50.515625 -13.78125 48.265625 -17.125 C 46.015625 -20.476562 43.59375 -24.070312 41 -27.90625 C 38.414062 -31.738281 35.769531 -35.660156 33.0625 -39.671875 C 30.363281 -43.691406 27.722656 -47.628906 25.140625 -51.484375 C 22.554688 -55.347656 20.117188 -58.972656 17.828125 -62.359375 C 15.535156 -65.742188 13.507812 -68.75 11.75 -71.375 C 9.988281 -74 8.597656 -76.078125 7.578125 -77.609375 C 6.554688 -79.140625 6.007812 -79.941406 5.9375 -80.015625 C 5.851562 -79.546875 5.78125 -79.015625 5.71875 -78.421875 C 5.664062 -77.835938 5.640625 -77.195312 5.640625 -76.5 L 5.640625 -8.21875 C 5.640625 -5.914062 5.84375 -4.175781 6.25 -3 C 6.664062 -1.820312 7.078125 -1.035156 7.484375 -0.640625 C 7.898438 -0.253906 8.109375 -0.0625 8.109375 -0.0625 L 1.875 -0.0625 C 1.875 -0.0625 2.078125 -0.253906 2.484375 -0.640625 C 2.898438 -1.035156 3.300781 -1.820312 3.6875 -3 C 4.082031 -4.175781 4.28125 -5.914062 4.28125 -8.21875 L 4.28125 -76.4375 C 4.28125 -78.4375 4.046875 -80.003906 3.578125 -81.140625 C 3.109375 -82.273438 2.640625 -83.066406 2.171875 -83.515625 C 1.703125 -83.960938 1.46875 -84.1875 1.46875 -84.1875 L 11.046875 -84.1875 Z M 59.75 -9.75 "/></g></g></g></g></g><g transform="matrix(1, 0, 0, 1, 558, 34)"><g clip-path="url(#4fd7b0e257)"><g fill="#000000" fill-opacity="1"><g transform="translate(0.761476, 102.44663)"><g><path d="M 32.671875 -41.125 C 32.671875 -41.125 32.472656 -41.425781 32.078125 -42.03125 C 31.679688 -42.644531 30.984375 -43.332031 29.984375 -44.09375 C 28.992188 -44.851562 27.566406 -45.535156 25.703125 -46.140625 C 23.835938 -46.753906 21.4375 -47.0625 18.5 -47.0625 L 11.109375 -47.0625 L 11.109375 -8.21875 C 11.109375 -5.914062 11.3125 -4.175781 11.71875 -3 C 12.132812 -1.820312 12.535156 -1.035156 12.921875 -0.640625 C 13.316406 -0.253906 13.515625 -0.0625 13.515625 -0.0625 L 1.46875 -0.0625 C 1.46875 -0.0625 1.671875 -0.253906 2.078125 -0.640625 C 2.492188 -1.035156 2.90625 -1.820312 3.3125 -3 C 3.726562 -4.175781 3.9375 -5.914062 3.9375 -8.21875 L 3.9375 -76.4375 C 3.9375 -78.78125 3.726562 -80.5 3.3125 -81.59375 C 2.90625 -82.695312 2.492188 -83.414062 2.078125 -83.75 C 1.671875 -84.082031 1.46875 -84.25 1.46875 -84.25 L 54.515625 -84.25 L 56.921875 -73.03125 C 56.921875 -73.03125 56.722656 -73.332031 56.328125 -73.9375 C 55.941406 -74.539062 55.171875 -75.28125 54.015625 -76.15625 C 52.859375 -77.039062 51.15625 -77.914062 48.90625 -78.78125 C 46.65625 -79.644531 43.675781 -80.378906 39.96875 -80.984375 C 36.269531 -81.585938 31.679688 -81.890625 26.203125 -81.890625 L 11.8125 -81.890625 C 11.613281 -81.347656 11.445312 -80.625 11.3125 -79.71875 C 11.175781 -78.820312 11.109375 -77.75 11.109375 -76.5 L 11.109375 -49.0625 L 18.5 -49.0625 C 21.4375 -49.0625 23.835938 -49.363281 25.703125 -49.96875 C 27.566406 -50.570312 28.992188 -51.253906 29.984375 -52.015625 C 30.984375 -52.785156 31.679688 -53.472656 32.078125 -54.078125 C 32.472656 -54.679688 32.671875 -54.984375 32.671875 -54.984375 Z M 32.671875 -41.125 "/></g></g></g><g fill="#000000" fill-opacity="1"><g transform="translate(84.882128, 102.44663)"><g><path d="M 1.46875 -0.0625 C 1.46875 -0.0625 1.671875 -0.253906 2.078125 -0.640625 C 2.492188 -1.035156 2.90625 -1.820312 3.3125 -3 C 3.726562 -4.175781 3.9375 -5.914062 3.9375 -8.21875 L 3.9375 -76.4375 C 3.9375 -78.78125 3.726562 -80.5 3.3125 -81.59375 C 2.90625 -82.695312 2.492188 -83.414062 2.078125 -83.75 C 1.671875 -84.082031 1.46875 -84.25 1.46875 -84.25 L 13.515625 -84.25 C 13.515625 -84.25 13.316406 -84.09375 12.921875 -83.78125 C 12.535156 -83.46875 12.132812 -82.757812 11.71875 -81.65625 C 11.3125 -80.5625 11.109375 -78.84375 11.109375 -76.5 L 11.109375 -8.21875 C 11.109375 -5.914062 11.3125 -4.175781 11.71875 -3 C 12.132812 -1.820312 12.535156 -1.035156 12.921875 -0.640625 C 13.316406 -0.253906 13.515625 -0.0625 13.515625 -0.0625 Z M 1.46875 -0.0625 "/></g></g></g></g></g><g transform="matrix(1, 0, 0, 1, 502, 15)"><g clip-path="url(#f098f5b867)"><g fill="#000000" fill-opacity="1"><g transform="translate(36.266952, 166.086811)"><g><path d="M -2.875 -19.078125 C -2.070312 -19.585938 -1.460938 -20.035156 -1.046875 -20.421875 C -0.640625 -20.816406 -0.363281 -21.125 -0.21875 -21.34375 C -0.0820312 -21.570312 -0.015625 -21.6875 -0.015625 -21.6875 L -0.015625 -17.46875 C -0.015625 -17.46875 -0.046875 -17.488281 -0.109375 -17.53125 C -0.179688 -17.570312 -0.316406 -17.585938 -0.515625 -17.578125 C -0.722656 -17.578125 -1.015625 -17.503906 -1.390625 -17.359375 C -1.765625 -17.210938 -2.257812 -16.957031 -2.875 -16.59375 L -11.4375 -11.34375 C -11.4375 -11.34375 -11.4375 -11.160156 -11.4375 -10.796875 C -11.4375 -10.429688 -11.4375 -9.96875 -11.4375 -9.40625 C -11.4375 -8.84375 -11.4375 -8.238281 -11.4375 -7.59375 C -11.4375 -6.957031 -11.4375 -6.359375 -11.4375 -5.796875 C -11.4375 -5.234375 -11.4375 -4.773438 -11.4375 -4.421875 C -11.4375 -4.066406 -11.4375 -3.890625 -11.4375 -3.890625 L -2.734375 -3.890625 C -1.921875 -3.890625 -1.316406 -3.960938 -0.921875 -4.109375 C -0.535156 -4.253906 -0.285156 -4.394531 -0.171875 -4.53125 C -0.0664062 -4.664062 -0.015625 -4.734375 -0.015625 -4.734375 L -0.015625 -0.515625 C -0.015625 -0.515625 -0.0703125 -0.585938 -0.1875 -0.734375 C -0.3125 -0.878906 -0.566406 -1.019531 -0.953125 -1.15625 C -1.347656 -1.300781 -1.945312 -1.375 -2.75 -1.375 L -26.625 -1.375 C -27.445312 -1.375 -28.0625 -1.300781 -28.46875 -1.15625 C -28.875 -1.019531 -29.144531 -0.878906 -29.28125 -0.734375 C -29.414062 -0.585938 -29.484375 -0.515625 -29.484375 -0.515625 C -29.484375 -0.515625 -29.484375 -0.722656 -29.484375 -1.140625 C -29.484375 -1.554688 -29.484375 -2.113281 -29.484375 -2.8125 C -29.484375 -3.519531 -29.484375 -4.289062 -29.484375 -5.125 C -29.484375 -5.957031 -29.484375 -6.800781 -29.484375 -7.65625 C -29.484375 -8.519531 -29.484375 -9.316406 -29.484375 -10.046875 C -29.484375 -10.785156 -29.484375 -11.394531 -29.484375 -11.875 C -29.484375 -12.351562 -29.484375 -12.632812 -29.484375 -12.71875 C -29.484375 -14.0625 -29.28125 -15.335938 -28.875 -16.546875 C -28.476562 -17.753906 -27.894531 -18.820312 -27.125 -19.75 C -26.363281 -20.675781 -25.445312 -21.40625 -24.375 -21.9375 C -23.300781 -22.46875 -22.09375 -22.734375 -20.75 -22.734375 C -18.976562 -22.734375 -17.441406 -22.429688 -16.140625 -21.828125 C -14.847656 -21.222656 -13.816406 -20.265625 -13.046875 -18.953125 C -12.273438 -17.648438 -11.78125 -15.925781 -11.5625 -13.78125 Z M -12.1875 -9.953125 C -12.1875 -11.398438 -12.296875 -12.734375 -12.515625 -13.953125 C -12.742188 -15.179688 -13.160156 -16.257812 -13.765625 -17.1875 C -14.367188 -18.113281 -15.222656 -18.832031 -16.328125 -19.34375 C -17.441406 -19.863281 -18.894531 -20.125 -20.6875 -20.125 C -22.113281 -20.125 -23.328125 -19.863281 -24.328125 -19.34375 C -25.335938 -18.820312 -26.15625 -18.128906 -26.78125 -17.265625 C -27.40625 -16.398438 -27.859375 -15.441406 -28.140625 -14.390625 C -28.429688 -13.335938 -28.578125 -12.285156 -28.578125 -11.234375 L -28.578125 -4.140625 C -28.378906 -4.066406 -28.117188 -4.003906 -27.796875 -3.953125 C -27.472656 -3.910156 -27.082031 -3.890625 -26.625 -3.890625 L -12.1875 -3.890625 Z M -12.1875 -9.953125 "/></g></g></g><g fill="#000000" fill-opacity="1"><g transform="translate(36.266952, 133.830605)"><g><path d="M -14.40625 -11.34375 C -14.40625 -11.34375 -14.507812 -11.273438 -14.71875 -11.140625 C -14.9375 -11.015625 -15.175781 -10.769531 -15.4375 -10.40625 C -15.707031 -10.050781 -15.945312 -9.550781 -16.15625 -8.90625 C -16.375 -8.257812 -16.484375 -7.425781 -16.484375 -6.40625 L -16.484375 -3.890625 L -2.875 -3.890625 C -2.394531 -3.890625 -1.988281 -3.914062 -1.65625 -3.96875 C -1.320312 -4.019531 -1.046875 -4.085938 -0.828125 -4.171875 L -0.828125 -9.171875 C -0.828125 -11.097656 -0.929688 -12.707031 -1.140625 -14 C -1.359375 -15.300781 -1.617188 -16.34375 -1.921875 -17.125 C -2.234375 -17.914062 -2.539062 -18.515625 -2.84375 -18.921875 C -3.144531 -19.328125 -3.398438 -19.597656 -3.609375 -19.734375 C -3.828125 -19.867188 -3.9375 -19.9375 -3.9375 -19.9375 L -0.015625 -19.09375 L -0.015625 -0.515625 C -0.015625 -0.515625 -0.0820312 -0.585938 -0.21875 -0.734375 C -0.363281 -0.878906 -0.640625 -1.019531 -1.046875 -1.15625 C -1.460938 -1.300781 -2.070312 -1.375 -2.875 -1.375 L -26.765625 -1.375 C -27.585938 -1.375 -28.191406 -1.300781 -28.578125 -1.15625 C -28.960938 -1.019531 -29.210938 -0.878906 -29.328125 -0.734375 C -29.453125 -0.585938 -29.515625 -0.515625 -29.515625 -0.515625 L -29.515625 -19.09375 L -25.578125 -19.9375 C -25.578125 -19.9375 -25.679688 -19.867188 -25.890625 -19.734375 C -26.109375 -19.597656 -26.367188 -19.328125 -26.671875 -18.921875 C -26.984375 -18.515625 -27.289062 -17.914062 -27.59375 -17.125 C -27.894531 -16.34375 -28.148438 -15.300781 -28.359375 -14 C -28.578125 -12.707031 -28.6875 -11.097656 -28.6875 -9.171875 L -28.6875 -4.140625 C -28.488281 -4.066406 -28.234375 -4.003906 -27.921875 -3.953125 C -27.609375 -3.910156 -27.234375 -3.890625 -26.796875 -3.890625 L -17.1875 -3.890625 L -17.1875 -6.40625 C -17.1875 -7.425781 -17.289062 -8.257812 -17.5 -8.90625 C -17.71875 -9.550781 -17.957031 -10.050781 -18.21875 -10.40625 C -18.488281 -10.769531 -18.726562 -11.015625 -18.9375 -11.140625 C -19.15625 -11.273438 -19.265625 -11.34375 -19.265625 -11.34375 Z M -14.40625 -11.34375 "/></g></g></g><g fill="#000000" fill-opacity="1"><g transform="translate(36.266952, 104.372125)"><g><path d="M -4.5625 -24.359375 C -2.988281 -23.171875 -1.835938 -21.660156 -1.109375 -19.828125 C -0.378906 -17.992188 -0.015625 -15.882812 -0.015625 -13.5 C -0.015625 -11.71875 -0.335938 -10.039062 -0.984375 -8.46875 C -1.640625 -6.894531 -2.597656 -5.507812 -3.859375 -4.3125 C -5.128906 -3.125 -6.675781 -2.191406 -8.5 -1.515625 C -10.320312 -0.847656 -12.398438 -0.515625 -14.734375 -0.515625 C -17.078125 -0.515625 -19.160156 -0.851562 -20.984375 -1.53125 C -22.816406 -2.207031 -24.363281 -3.160156 -25.625 -4.390625 C -26.894531 -5.628906 -27.859375 -7.09375 -28.515625 -8.78125 C -29.179688 -10.46875 -29.515625 -12.328125 -29.515625 -14.359375 C -29.515625 -15.785156 -29.398438 -17 -29.171875 -18 C -28.941406 -19.007812 -28.671875 -19.851562 -28.359375 -20.53125 C -28.046875 -21.21875 -27.742188 -21.804688 -27.453125 -22.296875 C -27.160156 -22.785156 -26.9375 -23.234375 -26.78125 -23.640625 C -26.632812 -24.054688 -26.625 -24.5 -26.75 -24.96875 L -22.96875 -23.5625 C -24.0625 -22.882812 -24.972656 -22.222656 -25.703125 -21.578125 C -26.441406 -20.941406 -27.03125 -20.25 -27.46875 -19.5 C -27.90625 -18.75 -28.21875 -17.890625 -28.40625 -16.921875 C -28.601562 -15.953125 -28.703125 -14.8125 -28.703125 -13.5 C -28.703125 -12.632812 -28.523438 -11.722656 -28.171875 -10.765625 C -27.816406 -9.816406 -27.273438 -8.890625 -26.546875 -7.984375 C -25.816406 -7.078125 -24.894531 -6.253906 -23.78125 -5.515625 C -22.675781 -4.785156 -21.375 -4.203125 -19.875 -3.765625 C -18.382812 -3.335938 -16.691406 -3.125 -14.796875 -3.125 C -12.421875 -3.125 -10.363281 -3.390625 -8.625 -3.921875 C -6.882812 -4.460938 -5.445312 -5.207031 -4.3125 -6.15625 C -3.175781 -7.113281 -2.332031 -8.21875 -1.78125 -9.46875 C -1.238281 -10.726562 -0.96875 -12.070312 -0.96875 -13.5 C -0.96875 -15.1875 -1.132812 -16.59375 -1.46875 -17.71875 C -1.800781 -18.84375 -2.3125 -19.796875 -3 -20.578125 C -3.695312 -21.359375 -4.585938 -22.066406 -5.671875 -22.703125 Z M -4.5625 -24.359375 "/></g></g></g><g fill="#000000" fill-opacity="1"><g transform="translate(36.266952, 69.894192)"><g><path d="M -29.421875 -13.5 C -29.421875 -14.925781 -29.171875 -16.285156 -28.671875 -17.578125 C -28.179688 -18.878906 -27.488281 -20.070312 -26.59375 -21.15625 C -25.695312 -22.238281 -24.632812 -23.175781 -23.40625 -23.96875 C -22.175781 -24.769531 -20.828125 -25.390625 -19.359375 -25.828125 C -17.890625 -26.265625 -16.347656 -26.484375 -14.734375 -26.484375 C -13.117188 -26.484375 -11.578125 -26.265625 -10.109375 -25.828125 C -8.640625 -25.390625 -7.289062 -24.769531 -6.0625 -23.96875 C -4.84375 -23.175781 -3.785156 -22.238281 -2.890625 -21.15625 C -1.992188 -20.070312 -1.296875 -18.878906 -0.796875 -17.578125 C -0.304688 -16.285156 -0.0625 -14.925781 -0.0625 -13.5 C -0.0625 -12.070312 -0.304688 -10.707031 -0.796875 -9.40625 C -1.296875 -8.113281 -1.992188 -6.925781 -2.890625 -5.84375 C -3.785156 -4.757812 -4.84375 -3.816406 -6.0625 -3.015625 C -7.289062 -2.222656 -8.640625 -1.609375 -10.109375 -1.171875 C -11.578125 -0.734375 -13.117188 -0.515625 -14.734375 -0.515625 C -16.347656 -0.515625 -17.890625 -0.734375 -19.359375 -1.171875 C -20.828125 -1.609375 -22.175781 -2.222656 -23.40625 -3.015625 C -24.632812 -3.816406 -25.695312 -4.757812 -26.59375 -5.84375 C -27.488281 -6.925781 -28.179688 -8.113281 -28.671875 -9.40625 C -29.171875 -10.707031 -29.421875 -12.070312 -29.421875 -13.5 Z M -0.96875 -13.5 C -0.96875 -14.632812 -1.195312 -15.71875 -1.65625 -16.75 C -2.125 -17.789062 -2.78125 -18.742188 -3.625 -19.609375 C -4.46875 -20.472656 -5.46875 -21.222656 -6.625 -21.859375 C -7.78125 -22.503906 -9.050781 -23 -10.4375 -23.34375 C -11.820312 -23.695312 -13.273438 -23.875 -14.796875 -23.875 C -16.316406 -23.875 -17.765625 -23.695312 -19.140625 -23.34375 C -20.523438 -23 -21.789062 -22.503906 -22.9375 -21.859375 C -24.09375 -21.222656 -25.09375 -20.472656 -25.9375 -19.609375 C -26.789062 -18.742188 -27.453125 -17.789062 -27.921875 -16.75 C -28.390625 -15.71875 -28.625 -14.632812 -28.625 -13.5 C -28.625 -12.363281 -28.390625 -11.273438 -27.921875 -10.234375 C -27.453125 -9.203125 -26.789062 -8.253906 -25.9375 -7.390625 C -25.09375 -6.523438 -24.09375 -5.769531 -22.9375 -5.125 C -21.789062 -4.488281 -20.523438 -3.992188 -19.140625 -3.640625 C -17.765625 -3.296875 -16.316406 -3.125 -14.796875 -3.125 C -13.273438 -3.125 -11.820312 -3.296875 -10.4375 -3.640625 C -9.050781 -3.992188 -7.78125 -4.488281 -6.625 -5.125 C -5.46875 -5.769531 -4.46875 -6.523438 -3.625 -7.390625 C -2.78125 -8.253906 -2.125 -9.203125 -1.65625 -10.234375 C -1.195312 -11.273438 -0.96875 -12.363281 -0.96875 -13.5 Z M -0.96875 -13.5 "/></g></g></g><g fill="#000000" fill-opacity="1"><g transform="translate(36.266952, 33.893943)"><g><path d="M -3.421875 -20.921875 L -26.765625 -20.921875 C -27.585938 -20.921875 -28.191406 -20.851562 -28.578125 -20.71875 C -28.960938 -20.582031 -29.207031 -20.441406 -29.3125 -20.296875 C -29.425781 -20.148438 -29.484375 -20.078125 -29.484375 -20.078125 L -29.484375 -22.265625 C -29.484375 -22.265625 -29.425781 -22.191406 -29.3125 -22.046875 C -29.207031 -21.898438 -28.96875 -21.753906 -28.59375 -21.609375 C -28.21875 -21.472656 -27.617188 -21.40625 -26.796875 -21.40625 L -0.015625 -21.375 L -0.015625 -20.921875 C -0.015625 -20.921875 -0.269531 -20.75 -0.78125 -20.40625 C -1.289062 -20.070312 -1.992188 -19.601562 -2.890625 -19 C -3.785156 -18.394531 -4.820312 -17.695312 -6 -16.90625 C -7.175781 -16.113281 -8.4375 -15.265625 -9.78125 -14.359375 C -11.125 -13.453125 -12.5 -12.523438 -13.90625 -11.578125 C -15.3125 -10.640625 -16.6875 -9.71875 -18.03125 -8.8125 C -19.382812 -7.90625 -20.65625 -7.050781 -21.84375 -6.25 C -23.03125 -5.445312 -24.082031 -4.734375 -25 -4.109375 C -25.914062 -3.492188 -26.640625 -3.007812 -27.171875 -2.65625 C -27.710938 -2.300781 -28 -2.109375 -28.03125 -2.078125 C -27.863281 -2.046875 -27.675781 -2.019531 -27.46875 -2 C -27.257812 -1.976562 -27.035156 -1.96875 -26.796875 -1.96875 L -2.875 -1.96875 C -2.070312 -1.96875 -1.460938 -2.039062 -1.046875 -2.1875 C -0.640625 -2.332031 -0.363281 -2.476562 -0.21875 -2.625 C -0.0820312 -2.769531 -0.015625 -2.84375 -0.015625 -2.84375 L -0.015625 -0.65625 C -0.015625 -0.65625 -0.0820312 -0.726562 -0.21875 -0.875 C -0.363281 -1.019531 -0.640625 -1.160156 -1.046875 -1.296875 C -1.460938 -1.429688 -2.070312 -1.5 -2.875 -1.5 L -26.765625 -1.5 C -27.472656 -1.5 -28.023438 -1.414062 -28.421875 -1.25 C -28.816406 -1.09375 -29.09375 -0.929688 -29.25 -0.765625 C -29.40625 -0.597656 -29.484375 -0.515625 -29.484375 -0.515625 L -29.484375 -3.875 Z M -3.421875 -20.921875 "/></g></g></g></g></g></svg>